HIERARCHY
ROOT Hips
{
	OFFSET 0.00000 0.00000 0.00000
	CHANNELS 6 Xposition Yposition Zposition Zrotation Yrotation Xrotation 
	JOINT LHipJoint
	{
		OFFSET 0 0 0
		CHANNELS 3 Zrotation Yrotation Xrotation
		JOINT LeftHip
		{
			OFFSET 1.59801 -1.77853 0.57028
			CHANNELS 3 Zrotation Yrotation Xrotation
			JOINT LeftKnee
			{
				OFFSET 2.39439 -6.57854 0.00000
				CHANNELS 3 Zrotation Yrotation Xrotation
				JOINT LeftAnkle
				{
					OFFSET 2.69334 -7.39989 0.00000
					CHANNELS 3 Zrotation Yrotation Xrotation
					JOINT LeftToe
					{
						OFFSET 0.09553 -0.26245 1.73747
						CHANNELS 3 Zrotation Yrotation Xrotation
						End Site
						{
							OFFSET 0.00000 -0.00000 0.89391
						}
					}
				}
			}
		}
	}
	JOINT RHipJoint
	{
		OFFSET 0 0 0
		CHANNELS 3 Zrotation Yrotation Xrotation
		JOINT RightHip
		{
			OFFSET -1.54704 -1.77852 0.57028
			CHANNELS 3 Zrotation Yrotation Xrotation
			JOINT RightKnee
			{
				OFFSET -2.40286 -6.60180 0.00000
				CHANNELS 3 Zrotation Yrotation Xrotation
				JOINT RightAnkle
				{
					OFFSET -2.63873 -7.24984 0.00000
					CHANNELS 3 Zrotation Yrotation Xrotation
					JOINT RightToe
					{
						OFFSET -0.15631 -0.42945 1.84436
						CHANNELS 3 Zrotation Yrotation Xrotation
						End Site
						{
							OFFSET -0.00000 -0.00000 0.95734
						}
					}
				}
			}
		}
	}
	JOINT lowerback
	{
		OFFSET 0 0 0
		CHANNELS 3 Zrotation Yrotation Xrotation
		JOINT Chest
		{
			OFFSET -0.00436 1.89866 -0.04018
			CHANNELS 3 Zrotation Yrotation Xrotation
			JOINT Chest2
			{
				OFFSET 0.02031 1.88273 0.09634
				CHANNELS 3 Zrotation Yrotation Xrotation
				JOINT lowerneck
				{
					OFFSET 0 0 0
					CHANNELS 3 Zrotation Yrotation Xrotation
					JOINT Neck
					{
						OFFSET -0.13105 1.89371 0.23083
						CHANNELS 3 Zrotation Yrotation Xrotation
						JOINT Head
						{
							OFFSET 0.17062 1.83990 -0.54062
							CHANNELS 3 Zrotation Yrotation Xrotation
							End Site
							{
								OFFSET 0.04576 1.94782 -0.21839
							}
						}
					}
				}
				JOINT LeftCollar
				{
					OFFSET 0 0 0
					CHANNELS 3 Zrotation Yrotation Xrotation
					JOINT LeftShoulder
					{
						OFFSET 3.12424 1.09204 0.22226
CHANNELS 3 Zrotation Xrotation Yrotation
						JOINT LeftElbow
						{
OFFSET 0 -5.292770 0.000000
CHANNELS 3 Zrotation Xrotation Yrotation
							JOINT LeftWrist
							{
OFFSET 0 -2.852260 0.000000
CHANNELS 3 Zrotation Xrotation Yrotation
								JOINT lhand
								{
									OFFSET 0 0 0
CHANNELS 3 Zrotation Xrotation Yrotation
									JOINT LFingers
									{
OFFSET 0 -0.602100 0.000000
CHANNELS 3 Zrotation Xrotation Yrotation
										End Site
										{
OFFSET 0 -0.485430 0.000000
										}
									}
								}
								JOINT LThumb
								{
OFFSET 0 0.000000 0.000000
CHANNELS 3 Zrotation Xrotation Yrotation
									End Site
									{
OFFSET 0 -0.492840 0.492840
									}
								}
							}
						}
					}
				}
				JOINT RightCollar
				{
					OFFSET 0 0 0
					CHANNELS 3 Zrotation Yrotation Xrotation
					JOINT RightShoulder
					{
						OFFSET -2.91709 1.01504 0.30199
CHANNELS 3 Zrotation Xrotation Yrotation
						JOINT RightElbow
						{
OFFSET 0 -5.133040 0.000000
CHANNELS 3 Zrotation Xrotation Yrotation
							JOINT RightWrist
							{
OFFSET 0 -2.743050 0.000000
CHANNELS 3 Zrotation Xrotation Yrotation
								JOINT rhand
								{
									OFFSET 0 0 0
CHANNELS 3 Zrotation Xrotation Yrotation
									JOINT RFingers
									{
OFFSET 0 -0.767980 0.000000
CHANNELS 3 Zrotation Xrotation Yrotation
										End Site
										{
OFFSET 0 -0.619160 0.000000
										}
									}
								}
								JOINT RThumb
								{
OFFSET 0 0.000000 0.000000
CHANNELS 3 Zrotation Xrotation Yrotation
									End Site
									{
OFFSET 0 -0.628620 0.628620
									}
								}
							}
						}
					}
				}
			}
		}
	}
}
MOTION
Frames: 7
Frame Time: 0.008333333333333333
-0.139300 17.450800 -0.295700 -1.661800 7.887600 7.303800 0.000000 0.000000 0.000000 -14.665000 -26.245100 -5.347600 1.089200 6.632800 18.632000 0.299300 8.787200 -17.016300 1.119800 -6.722100 -18.894800 0.000000 0.000000 0.000000 20.684700 8.208200 -2.215700 -0.169800 -2.654500 7.318300 -0.115500 -7.225000 -12.599200 -0.393200 4.026400 -11.151000 -0.019400 -0.277000 -5.837500 0.784100 -0.376300 -2.111700 0.790700 -0.184500 1.105500 -21.931200 -13.819800 -0.881000 22.992300 -21.010600 10.705600 8.978500 -10.170100 8.374100 0.000000 -0.000000 0.000000 0.391300 -2.984500 -35.384600 13.208500 -21.591900 2.529500 9.548500 16.930200 -22.957700 0.000000 0.000000 0.000000 -7.125000 0.000000 0.000000 -19.856100 52.123900 3.599000 0.000000 -0.000000 0.000000 -4.571900 5.085600 26.604500 -13.271700 -21.684000 -2.552800 -13.016600 27.678600 -13.082100 0.000000 0.000000 0.000000 7.125000 0.000000 -0.000000 9.856500 16.689500 6.711600
-0.134537 17.445748 -0.238754 -2.182076 6.371039 7.029263 0.000000 0.000000 0.000000 -14.467534 -25.894463 -4.811569 1.147294 6.801413 19.128313 0.316143 9.727146 -18.225859 1.151656 -6.811886 -19.159946 0.000000 0.000000 0.000000 21.035713 9.298434 -0.663587 -0.103664 -2.075909 5.715494 -0.035619 -7.568107 -11.533491 -0.494051 4.505713 -12.504148 0.013119 -0.158191 -5.850022 0.681061 -0.218861 -2.133965 0.677223 -0.106362 1.086910 -21.377649 -13.618289 -1.379953 22.266537 -20.687165 11.591627 8.678902 -9.977198 8.511085 0.000000 0.000000 0.000000 -0.229622 -2.683268 -28.127632 11.548478 -19.123841 1.951945 9.862729 22.380793 -22.332906 0.000000 0.000000 0.000000 -7.125000 0.000000 0.000000 -19.243663 51.586419 3.221417 0.000000 0.000000 0.000000 -4.122672 5.390451 25.734259 -13.110522 -21.448949 -2.493533 -13.033265 28.177549 -13.420908 0.000000 0.000000 0.000000 7.125000 0.000000 0.000000 9.840111 16.346897 6.774502
-0.130643 17.436259 -0.172241 -2.288320 5.662222 6.794510 0.000000 0.000000 0.000000 -14.685620 -25.677905 -4.003118 1.133023 6.760391 19.007377 0.305661 10.308738 -18.741774 1.228637 -7.029757 -19.803640 0.000000 0.000000 0.000000 21.191021 9.922543 -0.275848 -0.121497 -2.246954 6.188746 -0.046324 -7.591083 -11.774662 -0.580862 4.880117 -13.566968 -0.358106 -0.111451 -5.959016 0.579987 -0.134870 -2.060871 0.787331 -0.064451 1.222207 -21.107633 -13.493247 -1.876120 22.285741 -20.500668 11.903028 8.655814 -9.839343 8.630479 0.000000 0.000000 0.000000 -0.174581 -2.267734 -16.281361 8.804291 -14.847915 1.149508 10.242487 31.970154 -20.679136 0.000000 0.000000 0.000000 -7.125000 0.000000 0.000000 -18.114831 50.074293 2.333284 0.000000 0.000000 0.000000 -3.780125 5.775252 26.453853 -13.285684 -21.704415 -2.557941 -13.064299 27.352833 -13.233240 0.000000 0.000000 0.000000 7.125000 0.000000 0.000000 9.821562 16.533899 6.720830
-0.117107 17.432748 -0.122097 -2.288076 5.252203 6.739537 0.000000 0.000000 0.000000 -14.904748 -25.467157 -3.682907 1.144846 6.794237 19.107279 0.342667 10.346178 -19.200077 1.161317 -6.840970 -19.245334 0.000000 0.000000 0.000000 21.119898 10.223867 0.071748 -0.119554 -2.228911 6.138677 -0.049948 -7.605358 -11.863436 -0.622127 5.047602 -14.044452 -0.636821 -0.025005 -6.010684 0.553196 -0.003614 -1.908350 0.925416 0.000019 1.405491 -20.895242 -13.468208 -2.034870 22.600240 -20.431996 11.473848 8.731959 -9.781673 8.520128 0.000000 0.000000 0.000000 0.124305 -1.365849 -9.449952 7.300591 -12.412787 0.794997 11.240571 36.846252 -23.155330 0.000000 0.000000 0.000000 -7.125000 0.000000 0.000000 -18.328793 52.600435 3.524225 0.000000 0.000000 0.000000 -3.381620 5.741346 26.869618 -13.339360 -21.782401 -2.577862 -12.487111 27.920449 -13.461572 0.000000 0.000000 0.000000 7.125000 0.000000 0.000000 10.213148 16.343827 7.040366
-0.102134 17.430983 -0.096739 -2.312390 5.236973 7.025829 0.000000 0.000000 0.000000 -14.803302 -25.478193 -3.984256 1.153431 6.818784 19.179679 0.335239 10.402974 -19.179108 1.187284 -6.914206 -19.461712 0.000000 0.000000 0.000000 21.043297 10.235207 0.091566 -0.103145 -2.070851 5.701392 -0.037278 -7.730854 -11.783813 -0.602045 4.966567 -13.813279 -0.911843 0.119269 -6.009009 0.636850 0.203129 -1.814295 1.180811 0.102407 1.495482 -20.882623 -13.536595 -2.424435 22.990624 -20.528176 11.423298 8.826474 -9.781970 8.650781 0.000000 0.000000 0.000000 0.213200 -0.500876 -12.779589 6.515800 -11.119666 0.634979 12.468070 34.114487 -24.252897 0.000000 0.000000 0.000000 -7.125000 0.000000 0.000000 -17.693564 53.867913 3.952983 0.000000 0.000000 0.000000 -3.221547 5.567957 29.145767 -13.397125 -21.866244 -2.599320 -12.743553 27.075515 -13.616768 0.000000 0.000000 0.000000 7.125000 0.000000 0.000000 10.035519 16.170180 6.952382
-0.075776 17.431928 -0.072789 -2.089163 5.638545 7.362648 0.000000 0.000000 0.000000 -14.992832 -25.799115 -4.133319 1.125959 6.739935 18.947174 0.339339 10.212118 -19.017796 1.213467 -6.987801 -19.679163 0.000000 0.000000 0.000000 20.727030 9.948938 -0.377239 -0.113921 -2.175840 5.991851 -0.061504 -7.630067 -12.115098 -0.595932 4.941942 -13.743198 -1.030113 0.304882 -6.051226 0.587368 0.458802 -1.842983 1.214783 0.230334 1.481911 -20.922517 -13.711218 -2.346072 23.110203 -20.808337 11.408159 8.823765 -9.913737 8.721559 0.000000 0.000000 0.000000 -0.335590 0.366736 -16.639011 6.695071 -11.416210 0.670004 12.621263 34.926188 -23.659273 0.000000 0.000000 0.000000 -7.125000 0.000000 0.000000 -17.237715 53.326304 3.614692 0.000000 0.000000 0.000000 -2.766981 5.897801 31.036332 -13.802555 -22.451705 -2.752219 -12.605557 26.199511 -13.272031 0.000000 0.000000 0.000000 7.125000 0.000000 0.000000 10.135386 16.526217 6.944238
-0.047385 17.431238 -0.045541 -1.838296 6.235577 7.398499 0.000000 0.000000 0.000000 -15.317669 -25.805814 -4.057136 1.101825 6.669670 18.740344 0.347826 9.825630 -18.697679 1.334781 -7.315599 -20.653745 0.000000 0.000000 0.000000 20.468734 9.337054 -0.536195 -0.124441 -2.274308 6.264403 -0.090003 -7.526021 -12.507442 -0.589459 4.915269 -13.667215 -1.091515 0.272824 -5.945783 0.643653 0.417983 -1.854415 1.303419 0.210696 1.411692 -20.852437 -13.688021 -2.606650 22.871680 -20.745186 11.746540 8.728186 -9.863736 8.824716 0.000000 0.000000 0.000000 -1.115631 0.208640 -20.028648 6.775534 -11.549268 0.686056 12.942612 36.576329 -24.456867 0.000000 0.000000 0.000000 -7.125000 0.000000 0.000000 -17.332279 54.150955 3.990247 0.000000 0.000000 0.000000 -2.484981 6.074081 31.939847 -13.792062 -22.436681 -2.748285 -12.536844 26.298733 -13.233653 0.000000 0.000000 0.000000 7.125000 0.000000 0.000000 10.183075 16.569424 6.968233
